<svg xmlns="http://www.w3.org/2000/svg" data-name="Layer 1" viewBox="0 0 95 118.75" x="0px" y="0px"><path d="M87.49,70.568C72.934,60.331,72.731,47.743,72.557,36.638c-.1-5.682-.174-11.051-2.222-15.473-1.852-3.992-5.1-6.741-9.868-8.332a13.02,13.02,0,0,0-25.931,0C29.748,14.427,26.5,17.19,24.648,21.2c-2.028,4.414-2.115,9.767-2.2,15.436-.174,11.1-.377,23.691-14.933,33.928a6.6,6.6,0,0,0-2.077,8.725,8.868,8.868,0,0,0,7.921,4.359c7.051.1,14.225.167,21.445.2a13.021,13.021,0,0,0,25.4,0c7.219-.037,14.391-.1,21.435-.2a8.858,8.858,0,0,0,7.921-4.359A6.584,6.584,0,0,0,87.49,70.568ZM47.5,6.813A7.22,7.22,0,0,1,54.252,11.5a57.267,57.267,0,0,0-13.5,0A7.212,7.212,0,0,1,47.5,6.813Zm0,81.375a7.211,7.211,0,0,1-6.6-4.309q3.3.009,6.6.009t6.6-.009A7.219,7.219,0,0,1,47.5,88.188Zm36.946-11.66a3.3,3.3,0,0,1-2.888,1.313c-22.274.313-45.832.313-68.115,0a3.3,3.3,0,0,1-2.889-1.313.8.8,0,0,1,.3-1.2c7.553-5.312,12.47-11.684,15.02-19.477,2.183-6.671,2.289-13.282,2.386-19.117.077-5.256.154-9.8,1.671-13.1,1.033-2.255,3.1-4.989,9.949-6.135a50.348,50.348,0,0,1,15.135-.018c6.916,1.136,8.993,3.871,10.045,6.127,1.527,3.3,1.594,7.854,1.681,13.123.1,5.835.2,12.446,2.386,19.117,2.55,7.793,7.466,14.165,15.02,19.477A.81.81,0,0,1,84.447,76.528Z" style="" fill-rule="evenodd"/><text x="0" y="110" fill="#000000" font-size="5px" font-weight="bold" font-family="'Helvetica Neue', Helvetica, Arial-Unicode, Arial, Sans-serif">Created by Sunardi</text><text x="0" y="115" fill="#000000" font-size="5px" font-weight="bold" font-family="'Helvetica Neue', Helvetica, Arial-Unicode, Arial, Sans-serif">from the Noun Project</text></svg>