<svg xmlns="http://www.w3.org/2000/svg" xmlns:xlink="http://www.w3.org/1999/xlink" viewBox="0 0 34 41.25" version="1.1" x="0px" y="0px"><title>Shape</title><desc>Created with Sketch.</desc><g stroke="none" stroke-width="1" fill="none" fill-rule="evenodd"><g transform="translate(-1014.000000, -128.000000)" fill="#000000"><g transform="translate(0.000000, 105.000000)"><g transform="translate(1014.000000, 23.000000)"><g><path d="M16.4376379,32.2666697 C16.5914042,32.4190507 16.7836119,32.4952411 17.0142613,32.4952411 C17.2449107,32.4952411 17.4371184,32.4190507 17.5908847,32.2666697 C18.2828327,31.5428602 19.2438717,30.5904792 20.3586769,29.4476221 C25.7404951,24.1142888 33.928547,16.0761935 33.928547,10.2857173 C33.928547,5.06666972 29.6230925,0.800003052 24.356599,0.800003052 C21.5119236,0.800003052 18.7669297,3.30201859 17.0142613,6.01905067 C15.1143015,3.06354912 12.516599,0.800003052 9.67192364,0.800003052 C4.40543013,0.800003052 0.0999755859,5.06666972 0.0999755859,10.2857173 C0.0999755859,16.0761935 8.24958598,24.1142888 13.6698457,29.4476221 C14.7846509,30.552384 15.7841314,31.504765 16.4376379,32.2666697 Z M16.3607548,7.73333639 C16.514521,7.96190781 16.7451704,8.07619353 17.0142613,8.07619353 C17.2833522,8.07619353 17.5140016,7.96190781 17.6677678,7.73333639 C19.1669886,5.48571734 21.6656899,2.32381258 24.356599,2.32381258 C28.7773782,2.32381258 32.3908847,5.90476496 32.3908847,10.2857173 C32.3908847,15.4285745 24.2028327,23.5428602 19.2823132,28.3809554 C18.436599,29.2190507 17.6293262,29.9809554 17.0142613,30.6285745 C16.3991964,29.9809554 15.5919236,29.2190507 14.7462094,28.3809554 C9.82568987,23.5428602 1.63763792,15.4285745 1.63763792,10.2857173 C1.63763792,5.90476496 5.25114442,2.32381258 9.67192364,2.32381258 C12.3628327,2.32381258 14.861534,5.48571734 16.3607548,7.73333639 Z"/></g></g></g></g></g><text x="0" y="48" fill="#000000" font-size="5px" font-weight="bold" font-family="'Helvetica Neue', Helvetica, Arial-Unicode, Arial, Sans-serif">Created by Saideep Karipalli</text><text x="0" y="53" fill="#000000" font-size="5px" font-weight="bold" font-family="'Helvetica Neue', Helvetica, Arial-Unicode, Arial, Sans-serif">from the Noun Project</text></svg>