<svg xmlns="http://www.w3.org/2000/svg" data-name="Layer 1" viewBox="0 0 100 125" x="0px" y="0px"><defs><style>.cls-1{fill:none;}</style></defs><title>mini chat</title><path class="cls-1" d="M81.21,16.87A45,45,0,0,0,64.85,8.13a49,49,0,0,0-11.37-2C52.44,6,51.42,6,50.47,6s-1.77,0-2.6.08a67.87,67.87,0,0,0-7.62.82,46.45,46.45,0,0,0-14.66,5.29A39.19,39.19,0,0,0,10.88,26,30.67,30.67,0,0,0,6.94,50.2,33.73,33.73,0,0,0,18,68,46,46,0,0,0,43.25,79.14a10.56,10.56,0,0,1,9.49,11.23c0,0.31,0,.61,0,0.91C54.83,90,56.92,88.57,59,87.08A194.76,194.76,0,0,0,81.91,68.14,46.93,46.93,0,0,0,88,61.27a32.38,32.38,0,0,0,6-18.35,31.5,31.5,0,0,0-1.18-8.56A35.23,35.23,0,0,0,81.21,16.87Z"/><path d="M85.08,12.3A51.26,51.26,0,0,0,66.6,2.39,54.79,54.79,0,0,0,53.83.1C52.72,0,51.59,0,50.47,0s-2,0-3,.09a73.94,73.94,0,0,0-8.29.9A52.24,52.24,0,0,0,22.63,7,45.3,45.3,0,0,0,5.75,22.9,36.78,36.78,0,0,0,1.11,51.61,39.87,39.87,0,0,0,14,72.49,52.23,52.23,0,0,0,42.47,85.09a4.56,4.56,0,0,1,4.28,5.1c0,1.64-.37,3.27-0.57,4.9a9.55,9.55,0,0,0-.2,3.71A1.31,1.31,0,0,0,47.2,100l0.22,0a12.31,12.31,0,0,0,3-.78A67.14,67.14,0,0,0,62.49,92,199.83,199.83,0,0,0,86.08,72.45,52.18,52.18,0,0,0,93,64.69a38.2,38.2,0,0,0,7-21.75,37.46,37.46,0,0,0-1.41-10.23A41.31,41.31,0,0,0,85.08,12.3Zm2.93,49a46.93,46.93,0,0,1-6.11,6.86A194.76,194.76,0,0,1,59,87.08c-2.11,1.49-4.2,2.94-6.33,4.21,0-.3,0-0.6,0-0.91a10.56,10.56,0,0,0-9.49-11.23A46,46,0,0,1,18,68,33.73,33.73,0,0,1,6.94,50.2,30.67,30.67,0,0,1,10.88,26,39.19,39.19,0,0,1,25.58,12.19,46.45,46.45,0,0,1,40.25,6.9a67.87,67.87,0,0,1,7.62-.82C48.7,6,49.57,6,50.47,6s2,0,3,.09a49,49,0,0,1,11.37,2,45,45,0,0,1,16.35,8.75A35.23,35.23,0,0,1,92.82,34.37,31.5,31.5,0,0,1,94,42.93,32.38,32.38,0,0,1,88,61.27Z"/><text x="0" y="115" fill="#000000" font-size="5px" font-weight="bold" font-family="'Helvetica Neue', Helvetica, Arial-Unicode, Arial, Sans-serif">Created by i cons</text><text x="0" y="120" fill="#000000" font-size="5px" font-weight="bold" font-family="'Helvetica Neue', Helvetica, Arial-Unicode, Arial, Sans-serif">from the Noun Project</text></svg>