<svg width="24" height="24" viewBox="0 0 24 24" fill="none" xmlns="http://www.w3.org/2000/svg">
<g clip-path="url(#clip0_11148_13057)">
<path d="M24 0H0V24H24V0Z" fill="#1BD741"/>
<path d="M3.60706 20.4021L4.78264 16.2268C4.02667 14.9425 3.62865 13.4813 3.62865 11.9802C3.62865 7.35824 7.38887 3.59802 12.0108 3.59802C16.6327 3.59802 20.3929 7.35824 20.3929 11.9802C20.3929 16.6021 16.6327 20.3623 12.0108 20.3623C10.5706 20.3623 9.16044 19.9937 7.91291 19.2937L3.60706 20.4021ZM8.13304 17.7688L8.38961 17.9254C9.47731 18.5894 10.7295 18.9404 12.0108 18.9404C15.8487 18.9404 18.971 15.8181 18.971 11.9802C18.971 8.14228 15.8487 5.01991 12.0108 5.01991C8.17291 5.01991 5.05054 8.14228 5.05054 11.9802C5.05054 13.3174 5.43061 14.616 6.14956 15.7356L6.32234 16.0047L5.64536 18.4091L8.13304 17.7688Z" fill="white"/>
<path d="M9.6561 8.07885L9.1122 8.0492C8.94136 8.03988 8.77379 8.09697 8.64466 8.20914C8.38098 8.43812 7.95936 8.8808 7.82986 9.45767C7.63675 10.3178 7.93519 11.3711 8.70759 12.4243C9.47999 13.4776 10.9194 15.1628 13.4648 15.8825C14.285 16.1144 14.9302 15.9581 15.428 15.6396C15.8223 15.3874 16.0941 14.9826 16.1921 14.525L16.2789 14.1194C16.3065 13.9904 16.241 13.8596 16.1213 13.8044L14.2831 12.9572C14.1638 12.9022 14.0223 12.9369 13.942 13.0409L13.2204 13.9764C13.1659 14.0471 13.0725 14.0751 12.9883 14.0455C12.4941 13.8718 10.8387 13.1785 9.93036 11.4289C9.89097 11.353 9.90077 11.2609 9.95664 11.1962L10.6463 10.3983C10.7168 10.3169 10.7346 10.2023 10.6922 10.1033L9.89987 8.24953C9.85769 8.15084 9.76316 8.0847 9.6561 8.07885Z" fill="white"/>
</g>
<defs>
<clipPath id="clip0_11148_13057">
<rect width="24" height="24" fill="white"/>
</clipPath>
</defs>
</svg>
