<svg width="1024" height="1024" viewBox="0 0 1024 1024" fill="none" xmlns="http://www.w3.org/2000/svg">
<path d="M988.163 590.811L931.033 533.68C914.083 516.73 914.083 489.25 931.033 472.3L987.873 415.46C1008.76 394.57 1008.76 360.691 987.873 339.791C966.983 318.901 933.103 318.901 912.203 339.791L855.363 396.631C838.413 413.581 810.933 413.581 793.983 396.631L736.853 339.501C715.963 318.611 682.083 318.611 661.183 339.501C640.293 360.391 640.293 394.271 661.183 415.171L718.313 472.3C735.263 489.25 735.263 516.73 718.313 533.68L661.473 590.521C640.573 611.421 640.573 645.291 661.473 666.191C682.373 687.081 716.243 687.081 737.143 666.191L793.983 609.35C810.933 592.4 838.413 592.4 855.363 609.35L912.493 666.48C933.393 687.37 967.263 687.37 988.163 666.48C1009.05 645.581 1009.05 611.711 988.163 590.811Z" fill="white"/>
<path d="M227.002 296.17C112.962 296.17 20.1719 388.95 20.1719 503C20.1719 617.04 112.952 709.83 227.002 709.83C341.042 709.83 433.832 617.05 433.832 503C433.822 388.95 341.042 296.17 227.002 296.17ZM227.002 598.17C174.432 598.17 131.822 555.56 131.822 502.99C131.822 450.42 174.432 407.81 227.002 407.81C279.572 407.81 322.182 450.42 322.182 502.99C322.182 555.56 279.572 598.17 227.002 598.17Z" fill="white"/>
<path d="M535.81 254.11C504.47 254.11 479.07 279.51 479.07 310.85V695.15C479.07 726.49 504.47 751.89 535.81 751.89C567.15 751.89 592.55 726.49 592.55 695.15V310.85C592.55 279.51 567.15 254.11 535.81 254.11Z" fill="white"/>
<path d="M709.102 717.66H714.352V755.95H709.102V717.66Z" fill="white"/>
<path d="M748.23 717.66H753.781C760.461 727.33 767.13 736.85 773.86 746.96H773.961V717.66H779.211V755.95H773.66C767.03 746.43 760.311 737.05 753.581 727.09H753.48V755.95H748.23V717.66Z" fill="white"/>
<path d="M813.082 717.66H827.172C839.932 717.66 845.332 726.2 845.332 736.56C845.332 747.95 838.752 755.95 827.612 755.95H813.082V717.66ZM827.322 751.09C834.392 751.09 839.792 746.57 839.792 736.9C839.792 726.3 833.312 722.52 825.902 722.52H818.342C818.342 731.99 818.342 741.61 818.342 751.09H827.322Z" fill="white"/>
<path d="M876.902 717.66H882.152V755.95H876.902V717.66Z" fill="white"/>
<path d="M926.832 717.66H932.872L947.942 755.95H942.292L937.582 744.17C932.382 744.17 927.172 744.17 921.922 744.17C920.352 748.1 918.882 752.02 917.312 755.95H911.762L926.832 717.66ZM935.712 739.11C933.792 734.3 931.732 729 929.872 723.94H929.772L923.832 739.11H935.712Z" fill="white"/>
</svg>
